<?xml version="1.0" encoding="UTF-8" standalone="no"?>
<svg
   xmlns:dc="http://purl.org/dc/elements/1.1/"
   xmlns:cc="http://creativecommons.org/ns#"
   xmlns:rdf="http://www.w3.org/1999/02/22-rdf-syntax-ns#"
   xmlns:svg="http://www.w3.org/2000/svg"
   xmlns="http://www.w3.org/2000/svg"
   xmlns:sodipodi="http://sodipodi.sourceforge.net/DTD/sodipodi-0.dtd"
   xmlns:inkscape="http://www.inkscape.org/namespaces/inkscape"
   height="512pt"
   viewBox="0 -35 512.0669 512"
   width="512pt"
   version="1.1"
   id="svg20"
   sodipodi:docname="corazon.svg"
   inkscape:version="0.92.2 5c3e80d, 2017-08-06">
  <metadata
     id="metadata26">
    <rdf:RDF>
      <cc:Work
         rdf:about="">
        <dc:format>image/svg+xml</dc:format>
        <dc:type
           rdf:resource="http://purl.org/dc/dcmitype/StillImage" />
        <dc:title></dc:title>
      </cc:Work>
    </rdf:RDF>
  </metadata>
  <defs
     id="defs24" />
  <sodipodi:namedview
     pagecolor="#ffffff"
     bordercolor="#666666"
     borderopacity="1"
     objecttolerance="10"
     gridtolerance="10"
     guidetolerance="10"
     inkscape:pageopacity="0"
     inkscape:pageshadow="2"
     inkscape:window-width="1440"
     inkscape:window-height="791"
     id="namedview22"
     showgrid="false"
     inkscape:zoom="0.34570313"
     inkscape:cx="-34.711864"
     inkscape:cy="341.33333"
     inkscape:window-x="0"
     inkscape:window-y="1"
     inkscape:window-maximized="1"
     inkscape:current-layer="svg20" />
  <path
     style="fill:#f05540;stroke-width:1.33315921;fill-opacity:1"
     d="M 505.71875 46.757812 C 495.04748 46.874207 484.39861 48.025412 473.92383 50.205078 C 472.75996 50.447263 471.59881 50.70316 470.43945 50.970703 C 407.94493 66.021471 358.76551 114.01855 342.10352 175.9375 C 341.83904 176.92034 341.58395 177.9067 341.33594 178.89648 C 325.46822 115.55059 275.72478 66.260372 212.23828 50.970703 C 166.89004 41.221977 119.52554 50.115317 80.806641 75.664062 C 42.092949 101.2076 15.280091 141.25595 6.40625 186.78125 C -21.131819 315.05616 43.473083 426.50484 136.44531 508.41602 C 175.40376 542.3595 218.32045 571.47965 264.25195 595.14844 L 341.33594 635.16406 L 418.41992 595.14844 C 568.70758 517.24195 715.34451 369.07515 676.27148 186.78125 C 661.39843 113.31168 601.38938 57.474661 527.04492 47.908203 C 519.956 47.062611 512.83293 46.680216 505.71875 46.757812 z "
     transform="matrix(0.75009798,0,0,0.75009798,0,-35.03345)"
     id="path2" />
  <g
     id="g12"
     style="fill:#fb7b76">
    <path
       d="m 185.41406,242.78125 c 0,-12.19141 -17.78515,-22.07031 -39.72265,-22.07031 -21.9375,0 -39.72266,9.8789 -39.72266,22.07031 0,12.1875 17.78516,22.06641 39.72266,22.06641 21.9375,0 39.72265,-9.87891 39.72265,-22.06641 z m 0,0"
       id="path8"
       inkscape:connector-curvature="0"
       style="fill:#f3705a;fill-opacity:1" />
    <path
       d="m 406.10547,242.78125 c 0,-12.19141 -17.78516,-22.07031 -39.72266,-22.07031 -21.9414,0 -39.72656,9.8789 -39.72656,22.07031 0,12.1875 17.78516,22.06641 39.72656,22.06641 21.9375,0 39.72266,-9.87891 39.72266,-22.06641 z m 0,0"
       id="path10"
       inkscape:connector-curvature="0"
       style="fill:#f3705a;fill-opacity:1" />
  </g>
  <path
     d="m300.175781 264.847656c-4.875 0-8.828125-3.949218-8.828125-8.824218-.089844-1.636719-1.820312-17.65625-35.3125-17.65625-33.492187 0-35.222656 16.019531-35.308594 17.847656-.054687 4.875-4.050781 8.785156-8.925781 8.730468-4.875-.054687-8.785156-4.046874-8.730469-8.921874 0-.355469.601563-35.3125 52.964844-35.3125 52.367188 0 52.96875 34.957031 52.96875 35.3125 0 2.339843-.933594 4.585937-2.585937 6.238281-1.65625 1.65625-3.902344 2.585937-6.242188 2.585937zm0 0"
     fill="#802d40"
     id="path14" />
  <path
     d="m167.761719 211.882812c-14.628907 0-26.484375-11.855468-26.484375-26.480468 0-4.875 3.953125-8.828125 8.828125-8.828125s8.828125 3.953125 8.828125 8.828125 3.953125 8.824218 8.828125 8.824218 8.828125-3.949218 8.828125-8.824218 3.949218-8.828125 8.824218-8.828125c4.878907 0 8.828126 3.953125 8.828126 8.828125 0 14.625-11.855469 26.480468-26.480469 26.480468zm0 0"
     fill="#2c3e50"
     id="path16" />
  <path
     d="m344.3125 211.882812c-14.625 0-26.484375-11.855468-26.484375-26.480468 0-4.875 3.953125-8.828125 8.828125-8.828125s8.828125 3.953125 8.828125 8.828125 3.953125 8.824218 8.828125 8.824218 8.828125-3.949218 8.828125-8.824218 3.953125-8.828125 8.828125-8.828125 8.828125 3.953125 8.828125 8.828125c0 14.625-11.859375 26.480468-26.484375 26.480468zm0 0"
     fill="#2c3e50"
     id="path18" />
</svg>
